<svg width="58" height="58" viewBox="0 0 58 58" fill="none" xmlns="http://www.w3.org/2000/svg">
<g clip-path="url(#clip0_1_4)">
<path d="M32.0667 50.8098L36.1381 46.7384L32.0722 42.6726L28.0008 46.744L32.0667 50.8098ZM21.1949 46.744L24.5979 50.1469L28.0008 46.744L24.5979 43.341L21.1949 46.744ZM37.5744 11.6151C32.2048 8.78669 25.6585 8.80327 20.2724 11.6151C7.94221 18.0785 6.26283 33.7343 15.2232 42.6947L20.5155 37.4024C14.8917 31.7787 16.1237 21.8516 24.1836 18.0785C27.1667 16.6754 30.6801 16.6754 33.6577 18.073C41.7287 21.824 42.944 31.7456 37.3369 37.3748L37.3534 37.3914L37.3369 37.4079L42.6291 42.7002C51.6116 33.7177 49.9211 18.084 37.5744 11.6151ZM37.3369 37.3748L32.0722 32.1102L26.791 37.3914L32.0722 42.6726L37.3369 37.4079L37.3203 37.3914L37.3369 37.3748Z" fill="#00B37E"/>
</g>
<defs>
<clipPath id="clip0_1_4">
<rect width="40" height="40" fill="white" transform="translate(0.644653 29) rotate(-45)"/>
</clipPath>
</defs>
</svg>
